<?xml version="1.0" encoding="UTF-8"?>
<svg id="Layer_1" data-name="Layer 1" xmlns="http://www.w3.org/2000/svg" viewBox="0 0 70.61 27.43">
  <defs>
    <style>
      .cls-1 {
        fill: #ffffff;
        stroke-width: 0px;
      }
    </style>
  </defs>
  <path class="cls-1" d="M0,9.9c.83.03,1.73-.04,2.73-.04,1.69,0,2.92.42,3.77,1.02.88.61,1.46,1.53,1.46,2.87,0,1.47-.6,2.47-1.4,3.11-.94.74-2.53.97-4.25.97-1.09,0-1.83-.06-2.32-.12v-7.79ZM1.64,16.49c.18.03.74.03,1.01.03,1.94.02,3.68-.92,3.68-2.69,0-1.63-1.67-2.7-3.44-2.7-.49,0-1.07.04-1.26.08v5.28Z"/>
  <path class="cls-1" d="M16.99,19.1c.8.03,1.68-.05,2.66-.05,1.65,0,2.84.43,3.67,1.05.86.63,1.42,1.58,1.42,2.96,0,1.52-.59,2.56-1.36,3.22-.92.77-2.47,1-4.13,1-1.06,0-1.78-.06-2.26-.13v-8.06ZM18.58,25.91c.18.03.72.03.98.03,1.89.02,3.58-.95,3.58-2.78,0-1.68-1.63-2.79-3.35-2.79-.48,0-1.04.04-1.22.08v5.46Z"/>
  <path class="cls-1" d="M14.4,14.34h-3.33v2.16h3.72v1.23h-5.61v-7.8h5.43v1.1h-3.53v2.09h3.33v1.23Z"/>
  <path class="cls-1" d="M16,15.61c.53.27,1.61,1.05,2.5,1.05s1.33-.32,1.33-.84c0-.45-.37-1.03-1.43-1.33-1.42-.4-2.67-1.55-2.57-2.56.14-1.35,1.09-2.15,3.04-2.15,1.04,0,1.62.3,2.17.54l-.03,1.33c-.35-.15-1.53-.63-2.42-.63-.83,0-1.15.45-1.15.85,0,.5.65.83,1.71,1.28,1.11.47,2.21,1.15,2.21,2.35,0,1.26-.57,2.36-2.99,2.36-1,0-1.87-.27-2.38-.54v-1.71Z"/>
  <path class="cls-1" d="M24.46,9.92v7.8h-1.66v-7.8h1.66Z"/>
  <path class="cls-1" d="M33.86,17.05c-.71.43-1.47.75-3.19.75s-2.83-.39-3.64-1.14c-.75-.68-1.17-1.66-1.17-2.74,0-2.51,2.04-4.09,4.98-4.09,1.18,0,2.19.39,2.64.6l.02,1.44c-.52-.21-1.76-.76-2.8-.76-1.66,0-3.13,1.12-3.13,2.71s1.17,2.7,2.91,2.7c.5,0,1.58-.11,1.75-.19l-.04-1.28-1.32-.06-.02-1.17h3.02v3.23Z"/>
  <path class="cls-1" d="M35.45,17.73v-7.8h1.43s3.95,4.44,4.85,5.42c0,0,0-1.87,0-2.96v-2.46h1.63v7.8h-1.41s-4.45-4.55-4.9-5.53h-.05c.06,1.12.07,1.81.07,2.99v2.54h-1.63Z"/>
  <path class="cls-1" d="M6.74,21.48h-.03l-2.36,2.95h-.21l-2.38-2.95h-.02c-.05,1.19-.03,5.81-.03,5.81H.16l-.03-8.23h1.38l2.75,3.24h.04l2.65-3.24h1.45l.02,8.23h-1.63l-.06-5.81Z"/>
  <path class="cls-1" d="M15.33,23.72h-3.59v2.39h3.97v1.18h-5.61v-8.23h5.43v1.31h-3.79v2.17h3.59v1.18Z"/>
  <path class="cls-1" d="M27.93,19.06v8.23h-1.6v-8.23h1.6Z"/>
  <path class="cls-1" d="M36.91,26.66c-.36.18-1.72.77-2.83.77-3.02,0-4.61-1.8-4.61-4.15,0-2.71,2.06-4.38,4.77-4.38,1.07,0,1.5.29,2.61.8v1.44c-.68-.5-1.79-.8-2.54-.8-1.61,0-3.26,1.06-3.26,2.82,0,1.55,1.1,2.97,3.27,2.8,1.76-.14,2.16-.64,2.58-.82v1.51Z"/>
  <path class="cls-1" d="M40.13,19.06v8.23h-1.64v-8.23h1.64Z"/>
  <path class="cls-1" d="M41.94,27.29v-8.23h1.3l4.96,5.78h.03c-.13-1.17-.01-5.78-.01-5.78h1.51v8.23h-1.41l-4.77-5.59h-.05s.07,5.59.07,5.59h-1.63Z"/>
  <path class="cls-1" d="M56.69,23.72h-3.59v2.39h3.97v1.18h-5.61v-8.23h5.43v1.31h-3.79v2.17h3.59v1.18Z"/>
  <g>
    <path class="cls-1" d="M61.66,15.49c.04-.38.09-.69.15-.92,0-.03,0-.05.01-.08.4-.21.68-.61.68-1.07,0-.19-.05-.36-.13-.52,0,0,0,0,0,0,.95-1.76,1.64-8.14-1.13-11.05-1.57,1.48-2.84,7.01-1.12,10.81-.18.21-.29.47-.29.76,0,.49.3.9.74,1.1,0,0,0,.01,0,.02.07.71.12,1.72.15,2.85-.22.12-.46.24-.75.39,0,0-1.08.63-.47,1.57,0,0,.25.41.77.44-.58.29-1.06,1.29.51,1.81,0,2.77-.04,5.19-.04,5.19,0,.2.17.37.37.37s.37-.17.37-.37c0,0-.08-3.34-.04-6.59.64-.31,1.34-.6,1.41-1.31,0,0,.03-.88-.36-1.1,0,0,1.07-.44.49-1.29-.43-.64-1.05-.91-1.33-1ZM61.64,15.67c.18.09.46.33.36.94,0,0-.06.08-.46.33.03-.47.06-.89.1-1.26ZM60.47,18.8c.11-.02.2-.05.29-.07,0,.27,0,.55.01.83-.83.03-.6-.69-.3-.75ZM60.78,21.49c-.17-.16-.38-.41-.29-.57.07-.12.17-.23.28-.32,0,.3,0,.6,0,.89ZM61.46,19.39c0-.32.01-.64.02-.95.4-.22.55-.42.55-.42.25.4.1,1.06-.57,1.37Z"/>
    <path class="cls-1" d="M63.05,15.86s1.7,2.48,6.05,2.16c0,0-2.06-2.46-6.05-2.16Z"/>
    <path class="cls-1" d="M63.05,15.45c4.7-.19,7.56-3.13,7.56-3.13-6.32.71-7.56,3.13-7.56,3.13Z"/>
    <path class="cls-1" d="M67.97,5.74s-5.19,3.85-5.19,9.18c0,0,4.32-2.97,5.19-9.18Z"/>
    <path class="cls-1" d="M60.3,15.45c-1.92-1.98-2.09-6.95-2.09-6.95-.22-2.23-4.37-1.81-4.37-1.81,0,0-.14,2.2.6,4.67,1.27,4.23,5.85,4.1,5.85,4.1Z"/>
    <path class="cls-1" d="M53.83,11.49s-3.04-.41-4.41,1.43c0,0-.25-.03.69,1.21s4.12,4.89,9.87,1.98c0,0-4.34-.22-6.14-4.62Z"/>
    <path class="cls-1" d="M63.13,2.28c0,.24.2.44.44.44s.44-.2.44-.44-.2-.44-.44-.44-.44.2-.44.44Z"/>
    <path class="cls-1" d="M62.88,1.39c.24,0,.44-.2.44-.44s-.2-.44-.44-.44-.44.2-.44.44.2.44.44.44Z"/>
    <path class="cls-1" d="M61.32.87c.24,0,.44-.2.44-.44s-.2-.44-.44-.44-.44.2-.44.44.2.44.44.44Z"/>
    <path class="cls-1" d="M59.73,1.39c.24,0,.44-.2.44-.44s-.2-.44-.44-.44-.44.2-.44.44.2.44.44.44Z"/>
    <path class="cls-1" d="M59.01,2.72c.24,0,.44-.2.44-.44s-.2-.44-.44-.44-.44.2-.44.44.2.44.44.44Z"/>
  </g>
</svg>