<svg width="173" height="60" viewBox="0 0 173 60" fill="none" xmlns="http://www.w3.org/2000/svg">
<g clip-path="url(#clip0_1_49)">
<path d="M53.2903 15.6694C55.019 15.7208 56.9189 15.5836 59.0242 15.5836C62.5843 15.5836 65.1346 16.4581 66.9318 17.7098C68.7803 18.9787 69.9956 20.9334 69.9956 23.7284C69.9956 26.8148 68.729 28.9238 67.0687 30.2784C65.0833 31.8388 61.7456 32.3018 58.1512 32.3018C55.8577 32.3018 54.3172 32.1817 53.2903 32.0446V15.6694ZM56.7306 29.524C57.1243 29.5926 58.2882 29.5926 58.853 29.5926C62.9266 29.6269 66.5724 27.655 66.5724 23.9341C66.5724 20.5219 63.0636 18.2585 59.3665 18.2585C58.3395 18.2585 57.1243 18.3443 56.7306 18.4128V29.5068V29.524Z" fill="#F16D6D"/>
<path d="M88.9089 35.011C90.6034 35.0624 92.4348 34.9081 94.4887 34.9081C97.9462 34.9081 100.445 35.8169 102.174 37.12C103.971 38.4403 105.152 40.4465 105.152 43.3443C105.152 46.5336 103.92 48.7113 102.294 50.1002C100.36 51.712 97.1246 52.1921 93.6158 52.1921C91.3907 52.1921 89.8845 52.0721 88.8746 51.9177V34.9938L88.9089 35.011ZM92.2636 49.3286C92.6402 49.3971 93.7869 49.3971 94.3175 49.3971C98.2714 49.4314 101.832 47.391 101.832 43.5501C101.832 40.0178 98.4083 37.6859 94.8139 37.6859C93.8041 37.6859 92.6231 37.7716 92.2465 37.8573V49.3286H92.2636Z" fill="#F16D6D"/>
<path d="M83.483 24.9972H76.4996V29.5411H84.2875V32.1303H72.5116V15.7208H83.8938V18.0356H76.4825V22.4252H83.4659V25.0144L83.483 24.9972Z" fill="#F16D6D"/>
<path d="M86.8549 27.6721C87.9674 28.2551 90.2268 29.8841 92.0924 29.8841C93.9581 29.8841 94.8823 29.1982 94.8823 28.1179C94.8823 27.1577 94.1121 25.9574 91.887 25.323C88.9088 24.4828 86.2901 22.0823 86.4955 19.9561C86.7864 17.1268 88.7719 15.4293 92.8798 15.4293C95.0706 15.4293 96.2687 16.0637 97.4326 16.5781L97.3642 19.3731C96.6282 19.0644 94.1463 18.0528 92.2807 18.0528C90.5349 18.0528 89.8673 18.9958 89.8673 19.836C89.8673 20.8991 91.2366 21.5679 93.4617 22.5281C95.7895 23.5226 98.083 24.9458 98.083 27.4664C98.083 30.107 96.902 32.4218 91.8014 32.4218C89.7133 32.4218 87.8647 31.8559 86.8035 31.2901V27.6893L86.8549 27.6721Z" fill="#F16D6D"/>
<path d="M104.587 15.7208V32.1132H101.113V15.7208H104.587Z" fill="#F16D6D"/>
<path d="M124.322 30.7071C122.833 31.6159 121.241 32.2846 117.63 32.2846C114.018 32.2846 111.707 31.4616 109.996 29.8841C108.421 28.4437 107.548 26.4033 107.548 24.1399C107.548 18.8587 111.827 15.5493 117.989 15.5493C120.454 15.5493 122.576 16.3724 123.518 16.801L123.569 19.836C122.491 19.3902 119.889 18.2414 117.681 18.2414C114.189 18.2414 111.108 20.5905 111.108 23.9341C111.108 27.2777 113.556 29.6097 117.219 29.6097C118.263 29.6097 120.522 29.3697 120.882 29.2153L120.796 26.5233L118.023 26.3861L117.972 23.9341H124.305V30.7243L124.322 30.7071Z" fill="#F16D6D"/>
<path d="M127.625 32.1132V15.7208H130.638C130.638 15.7208 138.922 25.0487 140.805 27.1063C140.805 27.1063 140.805 23.1797 140.805 20.882V15.7208H144.228V32.1132H141.267C141.267 32.1132 131.939 22.5624 130.98 20.4876H130.877C130.997 22.8539 131.031 24.2942 131.031 26.7633V32.1132H127.608H127.625Z" fill="#F16D6D"/>
<path d="M67.411 40.0007H67.3425L62.3789 46.1907H61.9338L56.936 40.0007H56.8846C56.7819 42.5041 56.8161 52.2092 56.8161 52.2092H53.6154L53.5641 34.9252H56.4567L62.2077 41.7325H62.2933L67.856 34.9252H70.8856L70.9369 52.2092H67.5308L67.411 40.0007Z" fill="#F16D6D"/>
<path d="M85.4343 44.7161H77.9032V49.7229H86.2387V52.2092H74.4629V34.9252H85.8451V37.6687H77.8861V42.2298H85.4172V44.7161H85.4343Z" fill="#F16D6D"/>
<path d="M111.861 34.9081V52.1921H108.507V34.9081H111.861Z" fill="#F16D6D"/>
<path d="M130.706 50.8889C129.953 51.2833 127.095 52.5179 124.767 52.5179C118.434 52.5179 115.114 48.7456 115.114 43.8073C115.114 38.1145 119.427 34.6166 125.109 34.6166C127.369 34.6166 128.242 35.2167 130.586 36.297V39.3148C129.149 38.2517 126.838 37.6344 125.263 37.6344C121.874 37.6344 118.434 39.8635 118.434 43.5672C118.434 46.808 120.745 49.8087 125.298 49.4486C128.978 49.1571 129.833 48.1111 130.706 47.7167V50.8889Z" fill="#F16D6D"/>
<path d="M137.45 34.9081V52.1921H134.01V34.9081H137.45Z" fill="#F16D6D"/>
<path d="M141.25 52.2092V34.9252H143.988L154.395 47.0823H154.463C154.19 44.6303 154.429 34.9252 154.429 34.9252H157.579V52.2092H154.617L144.605 40.4808H144.502L144.656 52.2092H141.233H141.25Z" fill="#F16D6D"/>
<path d="M172.196 44.7161H164.665V49.7229H173V52.2092H161.224V34.9252H172.606V37.6687H164.647V42.2298H172.179V44.7161H172.196Z" fill="#F16D6D"/>
</g>
<g clip-path="url(#clip1_1_49)">
<path d="M26.8122 33.9337C26.9061 33.1052 27.0188 32.4084 27.1502 31.9188C27.1502 31.8435 27.1502 31.8058 27.169 31.7305C28.0515 31.2597 28.6523 30.3935 28.6523 29.3954C28.6523 28.9811 28.5396 28.6045 28.3707 28.2467C30.4548 24.3863 31.9569 10.4325 25.911 4.04871C22.4937 7.28766 19.7149 19.4149 23.4701 27.7195C23.0758 28.1902 22.8317 28.7552 22.8317 29.3954C22.8317 30.45 23.4889 31.3727 24.4465 31.8058C24.4465 31.8246 24.4465 31.8435 24.4465 31.8623C24.5967 33.4065 24.7093 35.6285 24.7844 38.1142C24.315 38.3591 23.7893 38.6415 23.1321 38.9616C23.1321 38.9616 20.7851 40.3552 22.0995 42.3889C22.0995 42.3889 22.644 43.2928 23.7893 43.3493C22.5125 43.9896 21.4798 46.174 24.8971 47.3038C24.8971 53.3675 24.8032 58.659 24.8032 58.659C24.8032 59.111 25.1599 59.4688 25.6106 59.4688C26.0612 59.4688 26.4179 59.111 26.4179 58.659C26.4179 58.659 26.249 51.3337 26.3428 44.2155C27.751 43.5376 29.2719 42.9162 29.4221 41.3532C29.4221 41.3532 29.4784 39.4324 28.6335 38.9428C28.6335 38.9428 30.9805 37.9824 29.7225 36.1181C28.7837 34.7246 27.4318 34.1409 26.8122 33.9337ZM26.7559 34.3104C27.1502 34.5175 27.751 35.0448 27.5445 36.3629C27.5445 36.3629 27.4318 36.5324 26.5494 37.0785C26.6057 36.0617 26.6808 35.1201 26.7559 34.3104ZM24.2024 41.1837C24.4277 41.1272 24.6342 41.0707 24.8408 41.0142C24.8408 41.6168 24.8408 42.2194 24.8595 42.822C23.0383 42.8785 23.5452 41.3155 24.2024 41.1649V41.1837ZM24.8783 47.059C24.5028 46.7012 24.0522 46.1551 24.2587 45.7974C24.4089 45.5337 24.6342 45.3077 24.8783 45.1006C24.8783 45.7597 24.8783 46.4188 24.8783 47.059ZM26.3616 42.4642C26.3616 41.7675 26.3992 41.0707 26.4179 40.3928C27.3004 39.922 27.6196 39.4701 27.6196 39.4701C28.1641 40.3551 27.8261 41.7863 26.3616 42.4831V42.4642Z" fill="#F16D6D"/>
<path d="M29.8351 34.7435C29.8351 34.7435 33.5527 40.1857 43.0346 39.4701C43.0346 39.4701 38.5284 34.0655 29.8351 34.7435Z" fill="#F16D6D"/>
<path d="M29.8351 33.8396C40.1056 33.4253 46.3392 26.985 46.3392 26.985C32.5388 28.548 29.8351 33.8396 29.8351 33.8396Z" fill="#F16D6D"/>
<path d="M40.575 12.5792C40.575 12.5792 29.2343 21.0155 29.2343 32.6909C29.2343 32.6909 38.6598 26.1941 40.575 12.5792Z" fill="#F16D6D"/>
<path d="M23.8268 33.8396C19.6209 29.5084 19.2642 18.6052 19.2642 18.6052C18.776 13.7279 9.72595 14.6318 9.72595 14.6318C9.72595 14.6318 9.42553 19.4526 11.0403 24.8571C13.8191 34.122 23.8268 33.8207 23.8268 33.8207V33.8396Z" fill="#F16D6D"/>
<path d="M9.70717 25.1584C9.70717 25.1584 3.06045 24.2545 0.0562794 28.2844C0.0562794 28.2844 -0.488226 28.2279 1.55836 30.9396C3.60495 33.6512 10.5709 41.6545 23.1133 35.2707C23.1133 35.2707 13.6501 34.7811 9.70717 25.1584Z" fill="#F16D6D"/>
<path d="M30.0042 4.99026C30.0042 5.51754 30.436 5.95065 30.9617 5.95065C31.4875 5.95065 31.9193 5.51754 31.9193 4.99026C31.9193 4.46299 31.4875 4.02988 30.9617 4.02988C30.436 4.02988 30.0042 4.46299 30.0042 4.99026Z" fill="#F16D6D"/>
<path d="M29.4597 3.05066C29.9854 3.05066 30.4172 2.61754 30.4172 2.09027C30.4172 1.563 29.9854 1.12988 29.4597 1.12988C28.9339 1.12988 28.5021 1.563 28.5021 2.09027C28.5021 2.61754 28.9339 3.05066 29.4597 3.05066Z" fill="#F16D6D"/>
<path d="M26.0611 1.92078C26.5868 1.92078 27.0187 1.48766 27.0187 0.960388C27.0187 0.433116 26.5868 0 26.0611 0C25.5354 0 25.1035 0.433116 25.1035 0.960388C25.1035 1.48766 25.5354 1.92078 26.0611 1.92078Z" fill="#F16D6D"/>
<path d="M22.5876 3.05066C23.1133 3.05066 23.5452 2.61754 23.5452 2.09027C23.5452 1.563 23.1133 1.12988 22.5876 1.12988C22.0619 1.12988 21.63 1.563 21.63 2.09027C21.63 2.61754 22.0619 3.05066 22.5876 3.05066Z" fill="#F16D6D"/>
<path d="M21.0104 5.95065C21.5362 5.95065 21.968 5.51754 21.968 4.99026C21.968 4.46299 21.5362 4.02988 21.0104 4.02988C20.4847 4.02988 20.0529 4.46299 20.0529 4.99026C20.0529 5.51754 20.4847 5.95065 21.0104 5.95065Z" fill="#F16D6D"/>
</g>
<defs>
<clipPath id="clip0_1_49">
<rect width="119.71" height="37.0714" fill="white" transform="translate(53.2903 15.4464)"/>
</clipPath>
<clipPath id="clip1_1_49">
<rect width="46.3393" height="59.4688" fill="white"/>
</clipPath>
</defs>
</svg>
